<svg width="204" height="32" viewBox="0 0 204 32" fill="none" xmlns="http://www.w3.org/2000/svg">
<path d="M31.5 7.35898L27.9779 7.29676L26.192 4.40939L25.3083 7.76347L21.5 8.41685L24.9599 9.87921L25.271 10.0099L24.5367 13.1835L26.6898 11.2731L30.187 13.1835L28.7744 9.3316L31.5 7.35898Z" fill="#E43A12"/>
<path d="M4.69731 5.03806L7.10556 13.3426L1.5 19.6955L10.1783 19.3633L14.3306 28L15.7008 18.8651V18.0346L23.7977 17.4948L17.6939 13.7162L19.6869 4L11.3824 10.1453L4.69731 5.03806Z" fill="#E43A12"/>
<path d="M8.56548 29.625L7.29762 27.4881L8.38094 25.3452L6.02976 26.0536L4.24404 24L4.64284 26.625L4.67857 26.8571L2.5 27.5952L4.44046 28.1905L4.58927 31L6.37499 28.7321L8.56548 29.625Z" fill="#E43A12"/>
<path d="M22.2911 22.3185L22.887 24.3733L21.5 25.9452L23.6473 25.863L24.6747 28L24.9213 25.6884V25.4829L26.9247 25.339L25.4144 24.4144L25.9075 22L23.8528 23.5308L22.2911 22.3185Z" fill="#E43A12"/>
<path d="M41.3984 10.2422C41.138 10.1641 40.9818 9.99479 40.9297 9.73438C40.8646 9.55208 40.8841 9.35677 40.9883 9.14844C41.0924 8.92708 41.2552 8.80339 41.4766 8.77734C42.7396 8.58203 44.0026 8.47786 45.2656 8.46484C46.5417 8.4388 47.8177 8.41927 49.0938 8.40625C49.3411 8.40625 49.5299 8.48438 49.6602 8.64062C49.7904 8.79688 49.8555 8.97266 49.8555 9.16797C49.8555 9.36328 49.7904 9.54557 49.6602 9.71484C49.5299 9.87109 49.3411 9.94922 49.0938 9.94922C48.0781 9.97526 47.056 9.98828 46.0273 9.98828C44.9987 9.98828 43.9701 10.0404 42.9414 10.1445C42.9674 10.6654 43 11.1862 43.0391 11.707C43.0781 12.2148 43.1172 12.7292 43.1562 13.25C44.1458 13.1979 45.1289 13.1328 46.1055 13.0547C47.0951 12.9766 48.0846 12.9635 49.0742 13.0156C49.3216 13.0286 49.5104 13.1198 49.6406 13.2891C49.7708 13.4583 49.8359 13.6406 49.8359 13.8359C49.8359 14.0312 49.7708 14.207 49.6406 14.3633C49.5104 14.5195 49.3216 14.5911 49.0742 14.5781C48.0977 14.526 47.1276 14.5391 46.1641 14.6172C45.2135 14.6953 44.25 14.7604 43.2734 14.8125C43.3516 15.75 43.4232 16.6875 43.4883 17.625C43.5664 18.5495 43.6185 19.4805 43.6445 20.418C44.1003 20.3138 44.5625 20.2161 45.0312 20.125C45.5 20.0208 45.9688 19.9427 46.4375 19.8906C46.9062 19.8255 47.375 19.793 47.8438 19.793C48.3125 19.793 48.7812 19.832 49.25 19.9102C49.4583 19.9492 49.6146 20.0729 49.7188 20.2812C49.8229 20.4896 49.849 20.6849 49.7969 20.8672C49.7318 21.0885 49.6081 21.2448 49.4258 21.3359C49.2435 21.4271 49.0417 21.4531 48.8203 21.4141C48.4036 21.3359 47.9805 21.3099 47.5508 21.3359C47.1211 21.362 46.6979 21.4076 46.2812 21.4727C45.7995 21.5508 45.3177 21.6419 44.8359 21.7461C44.3672 21.8503 43.8984 21.9609 43.4297 22.0781C43.2083 22.1302 43 22.0911 42.8047 21.9609C42.6224 21.9349 42.4596 21.8633 42.3164 21.7461C42.1732 21.6289 42.1016 21.4531 42.1016 21.2188C42.0755 20.112 42.0234 19.0182 41.9453 17.9375C41.8802 16.8568 41.8021 15.7695 41.7109 14.6758C41.5677 14.5326 41.4831 14.3568 41.457 14.1484C41.444 13.9271 41.5026 13.7383 41.6328 13.582C41.5286 12.4753 41.4505 11.362 41.3984 10.2422ZM52.2773 17.6641C51.9388 17.4167 51.6979 17.1107 51.5547 16.7461C51.4115 16.3685 51.4049 15.9714 51.5352 15.5547C51.6654 15.1771 51.8672 14.8385 52.1406 14.5391C52.4141 14.2396 52.7266 13.9987 53.0781 13.8164C53.4688 13.6081 53.8854 13.4453 54.3281 13.3281C54.7708 13.2109 55.2201 13.1458 55.6758 13.1328C56.1315 13.1198 56.5807 13.1654 57.0234 13.2695C57.4792 13.3607 57.9089 13.5104 58.3125 13.7188C58.5339 13.8359 58.6576 13.9922 58.6836 14.1875C58.7096 14.3828 58.6706 14.5651 58.5664 14.7344C58.4753 14.9036 58.332 15.0273 58.1367 15.1055C57.9414 15.1836 57.7331 15.1641 57.5117 15.0469C57.1992 14.8776 56.8477 14.7669 56.457 14.7148C56.0664 14.6628 55.6693 14.6628 55.2656 14.7148C54.875 14.7539 54.5039 14.8516 54.1523 15.0078C53.8008 15.1641 53.5078 15.3659 53.2734 15.6133C53.2083 15.6784 53.1628 15.724 53.1367 15.75C53.1237 15.776 53.0977 15.8346 53.0586 15.9258L53.0195 16.1406C53.0586 16.2578 53.0911 16.3294 53.1172 16.3555C53.3776 16.5247 53.6445 16.6354 53.918 16.6875C54.2044 16.7266 54.4909 16.7526 54.7773 16.7656C55.181 16.7917 55.5911 16.8177 56.0078 16.8438C56.4375 16.8568 56.8477 16.9089 57.2383 17C57.6419 17.0911 58.013 17.2409 58.3516 17.4492C58.6901 17.6576 58.9766 17.9635 59.2109 18.3672C59.4714 18.8229 59.5885 19.2982 59.5625 19.793C59.5495 20.2747 59.3607 20.7109 58.9961 21.1016C58.6315 21.4922 58.2083 21.7656 57.7266 21.9219C57.2448 22.0651 56.7565 22.1693 56.2617 22.2344C55.819 22.2865 55.3568 22.2995 54.875 22.2734C54.4062 22.2474 53.9505 22.1693 53.5078 22.0391C53.0781 21.9219 52.6745 21.7396 52.2969 21.4922C51.9193 21.2318 51.6068 20.8932 51.3594 20.4766C51.2422 20.2682 51.2227 20.0729 51.3008 19.8906C51.3789 19.6953 51.4961 19.5521 51.6523 19.4609C51.8216 19.3568 52.0039 19.3177 52.1992 19.3438C52.4076 19.3698 52.5768 19.487 52.707 19.6953C52.8893 19.9948 53.1432 20.2227 53.4688 20.3789C53.7943 20.5352 54.1458 20.6458 54.5234 20.7109C54.9141 20.763 55.3047 20.776 55.6953 20.75C56.0859 20.7109 56.4375 20.6589 56.75 20.5938C56.9193 20.5547 57.0885 20.5026 57.2578 20.4375C57.4401 20.3594 57.5898 20.2682 57.707 20.1641C57.8372 20.0599 57.9284 19.9427 57.9805 19.8125C58.0326 19.6693 58.026 19.513 57.9609 19.3438C57.8307 19.0182 57.6094 18.7839 57.2969 18.6406C56.9974 18.4974 56.6784 18.4128 56.3398 18.3867C56.0013 18.3607 55.6562 18.3477 55.3047 18.3477C54.9531 18.3477 54.6016 18.3346 54.25 18.3086C53.8984 18.2695 53.5534 18.2044 53.2148 18.1133C52.8763 18.0221 52.5638 17.8724 52.2773 17.6641ZM66.9844 15.1836C67.2318 15.1836 67.4141 15.2617 67.5312 15.418C67.6615 15.5742 67.7266 15.75 67.7266 15.9453C67.7266 16.1406 67.6615 16.3229 67.5312 16.4922C67.4141 16.6484 67.2318 16.7266 66.9844 16.7266C66.6719 16.7396 66.3594 16.7396 66.0469 16.7266C65.7474 16.7005 65.4479 16.6745 65.1484 16.6484C65.1615 17.6771 65.1419 18.7057 65.0898 19.7344C65.0508 20.763 64.9466 21.7852 64.7773 22.8008C64.7513 23.0221 64.6341 23.1849 64.4258 23.2891C64.2174 23.3932 64.0156 23.4128 63.8203 23.3477C63.599 23.2826 63.4427 23.1589 63.3516 22.9766C63.2734 22.8073 63.2539 22.612 63.293 22.3906C63.4492 21.401 63.5339 20.4115 63.5469 19.4219C63.5729 18.4323 63.5729 17.4362 63.5469 16.4336C63.0521 16.3555 62.5508 16.2773 62.043 16.1992C61.5352 16.1081 61.0339 16.0299 60.5391 15.9648C60.3177 15.9388 60.1615 15.8216 60.0703 15.6133C59.9661 15.3919 59.9401 15.1901 59.9922 15.0078C60.0573 14.7865 60.181 14.6367 60.3633 14.5586C60.5456 14.4674 60.7409 14.4349 60.9492 14.4609C61.3789 14.526 61.8086 14.5977 62.2383 14.6758C62.668 14.7409 63.1042 14.806 63.5469 14.8711C63.5339 14.806 63.5273 14.7083 63.5273 14.5781C63.5273 13.4062 63.5208 12.2474 63.5078 11.1016C63.5078 9.95573 63.5664 8.79688 63.6836 7.625C63.7096 7.41667 63.7878 7.23438 63.918 7.07812C64.0612 6.92188 64.2435 6.84375 64.4648 6.84375C64.6602 6.84375 64.8424 6.92188 65.0117 7.07812C65.194 7.23438 65.2721 7.41667 65.2461 7.625C65.1159 8.875 65.0508 10.1185 65.0508 11.3555C65.0638 12.5794 65.0833 13.8229 65.1094 15.0859C65.4219 15.112 65.7344 15.138 66.0469 15.1641C66.3594 15.1771 66.6719 15.1836 66.9844 15.1836ZM69.0938 14.0508C69.1068 13.8034 69.1979 13.6211 69.3672 13.5039C69.5365 13.3737 69.7188 13.3086 69.9141 13.3086C70.1094 13.3086 70.2786 13.3737 70.4219 13.5039C70.5781 13.6211 70.6497 13.8034 70.6367 14.0508C70.6367 14.1289 70.6302 14.2135 70.6172 14.3047C70.6172 14.3828 70.6172 14.4609 70.6172 14.5391C71.0339 14.3307 71.4701 14.1549 71.9258 14.0117C72.3945 13.8555 72.8568 13.7578 73.3125 13.7188C73.7812 13.6797 74.2305 13.7188 74.6602 13.8359C75.1029 13.9401 75.5065 14.1484 75.8711 14.4609C76.0534 14.6302 76.1315 14.8125 76.1055 15.0078C76.0924 15.2031 76.0143 15.3724 75.8711 15.5156C75.7409 15.6458 75.5716 15.7305 75.3633 15.7695C75.1549 15.7956 74.9531 15.7305 74.7578 15.5742C74.6146 15.457 74.4518 15.3724 74.2695 15.3203C74.1003 15.2682 73.9115 15.2487 73.7031 15.2617C73.5078 15.2617 73.306 15.2812 73.0977 15.3203C72.9023 15.3594 72.7135 15.4049 72.5312 15.457C71.8411 15.6784 71.1966 15.9714 70.5977 16.3359C70.6237 16.974 70.6628 17.612 70.7148 18.25C70.7669 18.7839 70.8125 19.3372 70.8516 19.9102C70.8906 20.4701 71.0013 21.0039 71.1836 21.5117C71.2617 21.7461 71.2422 21.9414 71.125 22.0977C71.0208 22.2669 70.8711 22.3776 70.6758 22.4297C70.4935 22.4818 70.2982 22.4688 70.0898 22.3906C69.8945 22.3125 69.7578 22.1562 69.6797 21.9219C69.5755 21.6224 69.5039 21.3164 69.4648 21.0039C69.4258 20.6914 69.3867 20.3789 69.3477 20.0664C69.3216 19.7669 69.2891 19.4674 69.25 19.168C69.224 18.8555 69.1979 18.5495 69.1719 18.25C69.1068 17.5469 69.0612 16.8503 69.0352 16.1602C69.0221 15.457 69.0417 14.7539 69.0938 14.0508ZM77.5898 14.4219C77.8372 14.0833 78.1302 13.7839 78.4688 13.5234C78.8203 13.263 79.1914 13.0612 79.582 12.918C79.9727 12.7617 80.3763 12.6836 80.793 12.6836C81.2096 12.6706 81.6263 12.7487 82.043 12.918C82.4466 13.0742 82.8112 13.2891 83.1367 13.5625C83.4622 13.8229 83.7161 14.1615 83.8984 14.5781C84.0417 14.8906 84.1263 15.2292 84.1523 15.5938C84.1784 15.9583 84.0807 16.2904 83.8594 16.5898C83.6641 16.8633 83.4232 17.0716 83.1367 17.2148C82.8633 17.3581 82.5638 17.4622 82.2383 17.5273C81.9258 17.5924 81.6003 17.625 81.2617 17.625C80.9362 17.625 80.6237 17.6185 80.3242 17.6055C79.9857 17.5924 79.6471 17.5664 79.3086 17.5273C78.9831 17.4883 78.651 17.4492 78.3125 17.4102C78.4167 17.9961 78.625 18.5169 78.9375 18.9727C79.25 19.4284 79.6732 19.7734 80.207 20.0078C80.3503 20.0599 80.4609 20.099 80.5391 20.125C80.5781 20.138 80.6107 20.151 80.6367 20.1641C80.6758 20.1641 80.7148 20.1641 80.7539 20.1641C80.8581 20.1771 80.9427 20.1901 81.0078 20.2031C81.0859 20.2031 81.1576 20.1966 81.2227 20.1836C81.3138 20.1706 81.3724 20.1641 81.3984 20.1641C81.4375 20.151 81.4766 20.138 81.5156 20.125C81.6589 20.0859 81.7826 20.0404 81.8867 19.9883C82.0039 19.9362 82.1406 19.8516 82.2969 19.7344C82.375 19.6693 82.4792 19.5716 82.6094 19.4414C82.7396 19.3112 82.8503 19.194 82.9414 19.0898C83.0716 18.9076 83.2279 18.7839 83.4102 18.7188C83.6055 18.6536 83.8008 18.6797 83.9961 18.7969C84.1654 18.901 84.2826 19.0638 84.3477 19.2852C84.4258 19.4935 84.3997 19.6888 84.2695 19.8711C83.8919 20.3789 83.4427 20.8151 82.9219 21.1797C82.4141 21.5312 81.8281 21.7201 81.1641 21.7461C80.6302 21.7721 80.1159 21.681 79.6211 21.4727C79.1263 21.2513 78.6901 20.9583 78.3125 20.5938C77.8438 20.138 77.4727 19.6107 77.1992 19.0117C76.9258 18.4128 76.776 17.8008 76.75 17.1758C76.6328 17.0846 76.5417 16.974 76.4766 16.8438C76.4245 16.7005 76.4049 16.5573 76.418 16.4141C76.444 16.2708 76.4961 16.1406 76.5742 16.0234C76.6523 15.8932 76.7695 15.8086 76.9258 15.7695C77.069 15.2878 77.2904 14.8385 77.5898 14.4219ZM82.2773 14.8906C82.1341 14.7083 81.9128 14.5456 81.6133 14.4023C81.3659 14.2982 81.0729 14.2461 80.7344 14.2461C80.4089 14.2461 80.1289 14.3047 79.8945 14.4219C79.5951 14.5651 79.3281 14.7669 79.0938 15.0273C78.8594 15.2747 78.6706 15.5547 78.5273 15.8672C78.8398 15.9062 79.1523 15.9453 79.4648 15.9844C79.7773 16.0234 80.0898 16.0495 80.4023 16.0625C80.5716 16.0625 80.7409 16.0625 80.9102 16.0625C81.0794 16.0625 81.2487 16.056 81.418 16.043C81.4701 16.043 81.5156 16.043 81.5547 16.043C81.6068 16.0299 81.6589 16.0234 81.7109 16.0234C81.8281 15.9974 81.9128 15.9844 81.9648 15.9844C82.0299 15.9714 82.0951 15.9518 82.1602 15.9258C82.2122 15.9128 82.2773 15.8932 82.3555 15.8672C82.4206 15.8411 82.4596 15.8216 82.4727 15.8086C82.4857 15.7956 82.5052 15.7826 82.5312 15.7695L82.5898 15.5352C82.5638 15.4831 82.5443 15.4375 82.5312 15.3984C82.5312 15.3464 82.5182 15.3008 82.4922 15.2617C82.4792 15.2227 82.4466 15.1641 82.3945 15.0859C82.3555 15.0078 82.3164 14.9427 82.2773 14.8906ZM86.9844 6.66797C87.2188 6.66797 87.401 6.74609 87.5312 6.90234C87.6615 7.05859 87.7396 7.24089 87.7656 7.44922C87.8958 8.6862 87.9674 9.92318 87.9805 11.1602C87.9935 12.3971 87.974 13.6341 87.9219 14.8711C87.8828 16.1081 87.8177 17.3451 87.7266 18.582C87.6354 19.819 87.5443 21.0495 87.4531 22.2734C87.4271 22.4948 87.3424 22.6771 87.1992 22.8203C87.069 22.9766 86.8932 23.0547 86.6719 23.0547C86.4766 23.0547 86.2943 22.9766 86.125 22.8203C85.9557 22.6771 85.8776 22.4948 85.8906 22.2734C85.9818 21.0495 86.0729 19.819 86.1641 18.582C86.2682 17.3451 86.3398 16.1081 86.3789 14.8711C86.431 13.6341 86.4505 12.3971 86.4375 11.1602C86.4245 9.92318 86.3529 8.6862 86.2227 7.44922C86.1966 7.24089 86.2682 7.05859 86.4375 6.90234C86.6068 6.74609 86.7891 6.66797 86.9844 6.66797ZM91.3789 21.4727C90.9362 21.2773 90.5846 21.0104 90.3242 20.6719C90.0768 20.3203 89.901 19.9362 89.7969 19.5195C89.7057 19.1029 89.6797 18.6732 89.7188 18.2305C89.7578 17.7747 89.849 17.3385 89.9922 16.9219C90.1094 16.5964 90.2396 16.2578 90.3828 15.9062C90.5391 15.5547 90.7214 15.2292 90.9297 14.9297C91.138 14.6302 91.3854 14.3763 91.6719 14.168C91.9583 13.9466 92.2969 13.8034 92.6875 13.7383C93.0911 13.6732 93.4948 13.6536 93.8984 13.6797C94.3151 13.6927 94.7253 13.7318 95.1289 13.7969C95.3112 13.8229 95.487 13.8685 95.6562 13.9336C95.8255 13.9857 95.9948 14.0443 96.1641 14.1094C96.1771 13.9141 96.2617 13.7513 96.418 13.6211C96.5872 13.4909 96.763 13.4258 96.9453 13.4258C97.1667 13.4258 97.3424 13.5039 97.4727 13.6602C97.6159 13.8034 97.7005 13.9792 97.7266 14.1875C97.7917 14.7865 97.8177 15.3854 97.8047 15.9844C97.8047 16.5833 97.7852 17.1823 97.7461 17.7812C97.7201 18.3802 97.694 18.9792 97.668 19.5781C97.6549 20.1771 97.6615 20.776 97.6875 21.375C97.7005 21.6224 97.6224 21.8112 97.4531 21.9414C97.2969 22.0586 97.1211 22.1172 96.9258 22.1172C96.7305 22.1172 96.5482 22.0586 96.3789 21.9414C96.2227 21.8112 96.138 21.6224 96.125 21.375C95.3828 21.6875 94.5951 21.8698 93.7617 21.9219C92.9284 21.9609 92.1341 21.8112 91.3789 21.4727ZM91.5156 17.2344C91.4375 17.4688 91.3659 17.7357 91.3008 18.0352C91.2357 18.3346 91.2161 18.6211 91.2422 18.8945C91.2682 19.168 91.3529 19.4219 91.4961 19.6562C91.6393 19.8776 91.8737 20.0339 92.1992 20.125C92.8633 20.3333 93.5273 20.3919 94.1914 20.3008C94.8685 20.2096 95.5 19.9753 96.0859 19.5977C96.138 18.9596 96.1771 18.3411 96.2031 17.7422C96.2422 17.1432 96.2552 16.5378 96.2422 15.9258C96.0208 15.7826 95.793 15.6589 95.5586 15.5547C95.3372 15.4375 95.0898 15.3594 94.8164 15.3203C94.543 15.2812 94.25 15.2552 93.9375 15.2422C93.638 15.2161 93.3451 15.2161 93.0586 15.2422C93.0326 15.2422 92.9609 15.2617 92.8438 15.3008C92.7396 15.3268 92.681 15.3464 92.668 15.3594C92.5378 15.4245 92.4206 15.5286 92.3164 15.6719C92.1471 15.9062 91.9974 16.1602 91.8672 16.4336C91.737 16.694 91.6198 16.9609 91.5156 17.2344ZM100.422 17.6641C100.083 17.4167 99.8424 17.1107 99.6992 16.7461C99.556 16.3685 99.5495 15.9714 99.6797 15.5547C99.8099 15.1771 100.012 14.8385 100.285 14.5391C100.559 14.2396 100.871 13.9987 101.223 13.8164C101.613 13.6081 102.03 13.4453 102.473 13.3281C102.915 13.2109 103.365 13.1458 103.82 13.1328C104.276 13.1198 104.725 13.1654 105.168 13.2695C105.624 13.3607 106.053 13.5104 106.457 13.7188C106.678 13.8359 106.802 13.9922 106.828 14.1875C106.854 14.3828 106.815 14.5651 106.711 14.7344C106.62 14.9036 106.477 15.0273 106.281 15.1055C106.086 15.1836 105.878 15.1641 105.656 15.0469C105.344 14.8776 104.992 14.7669 104.602 14.7148C104.211 14.6628 103.814 14.6628 103.41 14.7148C103.02 14.7539 102.648 14.8516 102.297 15.0078C101.945 15.1641 101.652 15.3659 101.418 15.6133C101.353 15.6784 101.307 15.724 101.281 15.75C101.268 15.776 101.242 15.8346 101.203 15.9258L101.164 16.1406C101.203 16.2578 101.236 16.3294 101.262 16.3555C101.522 16.5247 101.789 16.6354 102.062 16.6875C102.349 16.7266 102.635 16.7526 102.922 16.7656C103.326 16.7917 103.736 16.8177 104.152 16.8438C104.582 16.8568 104.992 16.9089 105.383 17C105.786 17.0911 106.158 17.2409 106.496 17.4492C106.835 17.6576 107.121 17.9635 107.355 18.3672C107.616 18.8229 107.733 19.2982 107.707 19.793C107.694 20.2747 107.505 20.7109 107.141 21.1016C106.776 21.4922 106.353 21.7656 105.871 21.9219C105.389 22.0651 104.901 22.1693 104.406 22.2344C103.964 22.2865 103.501 22.2995 103.02 22.2734C102.551 22.2474 102.095 22.1693 101.652 22.0391C101.223 21.9219 100.819 21.7396 100.441 21.4922C100.064 21.2318 99.7513 20.8932 99.5039 20.4766C99.3867 20.2682 99.3672 20.0729 99.4453 19.8906C99.5234 19.6953 99.6406 19.5521 99.7969 19.4609C99.9661 19.3568 100.148 19.3177 100.344 19.3438C100.552 19.3698 100.721 19.487 100.852 19.6953C101.034 19.9948 101.288 20.2227 101.613 20.3789C101.939 20.5352 102.29 20.6458 102.668 20.7109C103.059 20.763 103.449 20.776 103.84 20.75C104.23 20.7109 104.582 20.6589 104.895 20.5938C105.064 20.5547 105.233 20.5026 105.402 20.4375C105.585 20.3594 105.734 20.2682 105.852 20.1641C105.982 20.0599 106.073 19.9427 106.125 19.8125C106.177 19.6693 106.171 19.513 106.105 19.3438C105.975 19.0182 105.754 18.7839 105.441 18.6406C105.142 18.4974 104.823 18.4128 104.484 18.3867C104.146 18.3607 103.801 18.3477 103.449 18.3477C103.098 18.3477 102.746 18.3346 102.395 18.3086C102.043 18.2695 101.698 18.2044 101.359 18.1133C101.021 18.0221 100.708 17.8724 100.422 17.6641ZM117.473 14.8711C117.941 14.5846 118.443 14.3372 118.977 14.1289C119.523 13.9206 120.077 13.8229 120.637 13.8359C120.585 12.7292 120.539 11.6289 120.5 10.5352C120.474 9.44141 120.454 8.34115 120.441 7.23438C120.441 6.98698 120.52 6.80469 120.676 6.6875C120.832 6.55729 121.008 6.49219 121.203 6.49219C121.398 6.49219 121.574 6.55729 121.73 6.6875C121.9 6.80469 121.984 6.98698 121.984 7.23438C121.997 8.52344 122.03 9.81901 122.082 11.1211C122.134 12.4102 122.186 13.6992 122.238 14.9883C122.29 16.2773 122.329 17.5729 122.355 18.875C122.382 20.1641 122.375 21.4531 122.336 22.7422C122.323 22.9896 122.232 23.1784 122.062 23.3086C121.893 23.4388 121.711 23.5039 121.516 23.5039C121.32 23.5039 121.145 23.4388 120.988 23.3086C120.832 23.1914 120.76 23.0026 120.773 22.7422C120.773 22.651 120.773 22.5599 120.773 22.4688C120.773 22.3776 120.78 22.2865 120.793 22.1953C120.663 22.1823 120.533 22.1693 120.402 22.1562C120.285 22.1562 120.168 22.1562 120.051 22.1562C119.895 22.1562 119.738 22.1562 119.582 22.1562C119.426 22.1562 119.276 22.1497 119.133 22.1367C118.794 22.1107 118.456 22.0781 118.117 22.0391C117.779 22 117.447 21.9219 117.121 21.8047C116.796 21.6745 116.49 21.5182 116.203 21.3359C115.917 21.1406 115.682 20.8867 115.5 20.5742C115.292 20.2487 115.116 19.8971 114.973 19.5195C114.842 19.1419 114.79 18.7513 114.816 18.3477C114.842 17.944 114.934 17.5729 115.09 17.2344C115.246 16.8958 115.441 16.5833 115.676 16.2969C115.923 16.0104 116.197 15.75 116.496 15.5156C116.809 15.2812 117.134 15.0664 117.473 14.8711ZM120.812 20.6523C120.812 18.9076 120.773 17.1562 120.695 15.3984C120.266 15.3724 119.836 15.4505 119.406 15.6328C118.99 15.8021 118.605 15.9974 118.254 16.2188C118.059 16.3359 117.844 16.4727 117.609 16.6289C117.388 16.7721 117.18 16.9414 116.984 17.1367C116.802 17.319 116.652 17.5208 116.535 17.7422C116.418 17.9635 116.359 18.2044 116.359 18.4648C116.372 18.6992 116.424 18.9531 116.516 19.2266C116.607 19.487 116.73 19.7018 116.887 19.8711C117.043 20.0404 117.219 20.1706 117.414 20.2617C117.609 20.3398 117.818 20.4049 118.039 20.457C118.299 20.5091 118.547 20.5417 118.781 20.5547C119.029 20.5677 119.283 20.5807 119.543 20.5938C119.751 20.5938 119.96 20.6068 120.168 20.6328C120.376 20.6458 120.591 20.6523 120.812 20.6523ZM129.113 12.9961C129.53 12.944 129.966 12.931 130.422 12.957C130.878 12.9701 131.314 13.0482 131.73 13.1914C132.147 13.3216 132.525 13.5234 132.863 13.7969C133.202 14.0703 133.462 14.4284 133.645 14.8711C133.775 15.1836 133.84 15.5026 133.84 15.8281C133.853 16.1406 133.807 16.4466 133.703 16.7461C133.612 17.0326 133.469 17.3125 133.273 17.5859C133.091 17.8464 132.876 18.0872 132.629 18.3086C132.095 18.7904 131.509 19.2005 130.871 19.5391C130.233 19.8776 129.562 20.138 128.859 20.3203C128.56 20.3984 128.247 20.4701 127.922 20.5352C127.609 20.5872 127.29 20.6133 126.965 20.6133C126.639 20.6133 126.32 20.5807 126.008 20.5156C125.695 20.4375 125.402 20.3138 125.129 20.1445C124.934 20.0273 124.816 19.8711 124.777 19.6758C124.699 19.4544 124.615 19.2461 124.523 19.0508C124.432 18.8555 124.341 18.6536 124.25 18.4453C124.172 18.237 124.107 18.0286 124.055 17.8203C124.003 17.612 123.977 17.3971 123.977 17.1758C123.977 16.7331 124.068 16.3164 124.25 15.9258C124.445 15.5221 124.706 15.1706 125.031 14.8711C125.578 14.3503 126.21 13.9336 126.926 13.6211C127.642 13.3086 128.371 13.1003 129.113 12.9961ZM131.32 14.6758C130.969 14.5456 130.591 14.4805 130.188 14.4805C129.758 14.4674 129.328 14.513 128.898 14.6172C128.469 14.7083 128.059 14.8385 127.668 15.0078C127.303 15.151 126.926 15.3529 126.535 15.6133C126.158 15.8607 125.878 16.1667 125.695 16.5312C125.591 16.7266 125.539 16.9284 125.539 17.1367C125.552 17.332 125.585 17.5339 125.637 17.7422C125.702 17.9375 125.78 18.1393 125.871 18.3477C125.975 18.543 126.066 18.7383 126.145 18.9336C126.353 18.9857 126.483 19.0117 126.535 19.0117C126.561 19.0247 126.594 19.0312 126.633 19.0312C126.672 19.0312 126.704 19.0312 126.73 19.0312C126.991 19.0573 127.225 19.0508 127.434 19.0117C127.577 19.0117 127.759 18.9857 127.98 18.9336C128.319 18.8685 128.645 18.7839 128.957 18.6797C129.27 18.5625 129.556 18.4388 129.816 18.3086C130.116 18.1654 130.409 18.0091 130.695 17.8398C130.982 17.6706 131.223 17.4948 131.418 17.3125C131.548 17.1953 131.672 17.0716 131.789 16.9414C131.854 16.8763 131.9 16.8242 131.926 16.7852C131.991 16.694 132.043 16.6289 132.082 16.5898C132.121 16.5378 132.154 16.4792 132.18 16.4141C132.232 16.3229 132.258 16.2513 132.258 16.1992C132.271 16.1732 132.277 16.1406 132.277 16.1016C132.29 16.0625 132.303 16.0299 132.316 16.0039V15.7891C132.303 15.737 132.297 15.6979 132.297 15.6719C132.297 15.6458 132.29 15.6198 132.277 15.5938C132.238 15.5026 132.199 15.4375 132.16 15.3984C132.134 15.3464 132.102 15.2943 132.062 15.2422C132.076 15.2552 132.056 15.2357 132.004 15.1836C131.965 15.1315 131.939 15.099 131.926 15.0859L131.77 14.9297C131.704 14.8906 131.633 14.8451 131.555 14.793C131.477 14.7409 131.398 14.7018 131.32 14.6758ZM142.492 21.7461C142.492 21.9935 142.408 22.1758 142.238 22.293C142.082 22.4232 141.906 22.4883 141.711 22.4883C141.516 22.4883 141.34 22.4232 141.184 22.293C141.027 22.1758 140.949 21.9935 140.949 21.7461C140.949 20.7305 141.066 19.7539 141.301 18.8164C141.535 17.8789 141.828 16.9479 142.18 16.0234C142.089 15.8542 142.062 15.6654 142.102 15.457C142.18 15.1836 142.349 15.0143 142.609 14.9492C142.87 14.3242 143.137 13.7057 143.41 13.0938C143.697 12.4688 143.97 11.8438 144.23 11.2188C144.491 10.5938 144.732 9.96224 144.953 9.32422C145.174 8.6862 145.357 8.03516 145.5 7.37109C145.539 7.17578 145.617 7.00651 145.734 6.86328C145.865 6.72005 146.04 6.64844 146.262 6.64844C146.47 6.64844 146.659 6.72656 146.828 6.88281C146.997 7.02604 147.069 7.20833 147.043 7.42969C147.004 8.1849 147.017 8.88151 147.082 9.51953C147.147 10.1445 147.245 10.7695 147.375 11.3945C147.505 12.0065 147.648 12.625 147.805 13.25C147.974 13.862 148.13 14.474 148.273 15.0859C148.417 15.6719 148.547 16.2578 148.664 16.8438C148.781 17.4297 148.97 17.9961 149.23 18.543C149.361 18.8164 149.497 19.0833 149.641 19.3438C149.784 19.5911 149.94 19.8451 150.109 20.1055C150.266 20.3398 150.409 20.5872 150.539 20.8477C150.669 21.0951 150.76 21.3685 150.812 21.668C150.839 21.8763 150.806 22.0716 150.715 22.2539C150.637 22.4362 150.487 22.5599 150.266 22.625C150.083 22.6771 149.888 22.651 149.68 22.5469C149.471 22.4427 149.348 22.2865 149.309 22.0781C149.257 21.7786 149.152 21.5117 148.996 21.2773C148.853 21.043 148.703 20.8021 148.547 20.5547C148.365 20.2682 148.195 19.9818 148.039 19.6953C147.896 19.3958 147.766 19.0898 147.648 18.7773C147.518 18.4518 147.408 18.1263 147.316 17.8008C147.225 17.4622 147.141 17.1237 147.062 16.7852C146.477 16.7461 145.897 16.7201 145.324 16.707C144.764 16.681 144.198 16.6354 143.625 16.5703C143.312 17.4036 143.046 18.25 142.824 19.1094C142.616 19.9688 142.505 20.8477 142.492 21.7461ZM144.328 14.832C144.302 14.8711 144.283 14.9167 144.27 14.9688C144.27 15.0078 144.257 15.0469 144.23 15.0859C144.647 15.125 145.057 15.151 145.461 15.1641C145.865 15.1641 146.275 15.1771 146.691 15.2031C146.548 14.5781 146.392 13.9596 146.223 13.3477C146.066 12.7227 145.923 12.0911 145.793 11.4531C145.559 12.026 145.318 12.5924 145.07 13.1523C144.823 13.6992 144.576 14.2591 144.328 14.832ZM153.684 22.2539C153.501 22.319 153.299 22.2995 153.078 22.1953C152.87 22.0911 152.753 21.9349 152.727 21.7266C152.544 20.5807 152.427 19.4479 152.375 18.3281C152.336 17.1953 152.316 16.056 152.316 14.9102C152.316 14.7148 152.368 14.5586 152.473 14.4414C152.577 14.3242 152.701 14.2461 152.844 14.207C152.987 14.168 153.137 14.1615 153.293 14.1875C153.449 14.2135 153.579 14.2786 153.684 14.3828C153.983 14.1354 154.302 13.9206 154.641 13.7383C154.979 13.556 155.318 13.4388 155.656 13.3867C156.008 13.3216 156.353 13.3411 156.691 13.4453C157.03 13.5365 157.349 13.7383 157.648 14.0508C157.896 14.3112 158.111 14.5911 158.293 14.8906C158.475 15.1771 158.638 15.4831 158.781 15.8086C158.977 15.3138 159.25 14.8581 159.602 14.4414C159.953 14.0247 160.402 13.7448 160.949 13.6016C161.353 13.4974 161.672 13.5234 161.906 13.6797C162.141 13.8229 162.362 14.0508 162.57 14.3633C162.792 14.6888 162.993 15.0208 163.176 15.3594C163.371 15.6979 163.553 16.043 163.723 16.3945C163.892 16.7461 164.055 17.0977 164.211 17.4492C164.367 17.8008 164.523 18.1458 164.68 18.4844C164.862 18.862 165.018 19.2396 165.148 19.6172C165.292 19.9818 165.383 20.3724 165.422 20.7891C165.448 21.0104 165.37 21.1992 165.188 21.3555C165.018 21.4987 164.836 21.5703 164.641 21.5703C164.419 21.5703 164.237 21.4987 164.094 21.3555C163.964 21.1992 163.885 21.0104 163.859 20.7891C163.833 20.4766 163.749 20.1771 163.605 19.8906C163.475 19.5911 163.345 19.2982 163.215 19.0117C163.072 18.7122 162.928 18.4062 162.785 18.0938C162.655 17.7812 162.518 17.4753 162.375 17.1758C162.232 16.8763 162.076 16.5768 161.906 16.2773C161.75 15.9779 161.581 15.6849 161.398 15.3984C161.372 15.3594 161.346 15.3203 161.32 15.2812C161.294 15.2422 161.268 15.2031 161.242 15.1641C160.982 15.3073 160.793 15.444 160.676 15.5742C160.559 15.7044 160.448 15.8802 160.344 16.1016C160.253 16.2969 160.174 16.5052 160.109 16.7266C160.057 16.9349 160.012 17.1497 159.973 17.3711C159.895 17.7878 159.836 18.224 159.797 18.6797C159.771 19.0182 159.771 19.3438 159.797 19.6562C159.836 19.9688 159.823 20.2943 159.758 20.6328C159.719 20.8411 159.595 20.9974 159.387 21.1016C159.191 21.2057 158.996 21.2318 158.801 21.1797C158.618 21.1276 158.482 21.0365 158.391 20.9062C158.312 20.763 158.26 20.6003 158.234 20.418C158.182 20.0013 158.124 19.5716 158.059 19.1289C157.993 18.6862 157.909 18.25 157.805 17.8203C157.701 17.3776 157.564 16.9544 157.395 16.5508C157.238 16.1341 157.03 15.75 156.77 15.3984C156.587 15.1641 156.398 15.0078 156.203 14.9297C156.021 14.8516 155.793 14.8841 155.52 15.0273C155.22 15.1836 154.927 15.3724 154.641 15.5938C154.354 15.8151 154.1 16.0625 153.879 16.3359C153.892 17.1693 153.918 18.0026 153.957 18.8359C154.009 19.6562 154.1 20.4766 154.23 21.2969C154.257 21.5182 154.224 21.7201 154.133 21.9023C154.055 22.0716 153.905 22.1888 153.684 22.2539ZM168.02 21.4727C167.577 21.2773 167.225 21.0104 166.965 20.6719C166.717 20.3203 166.542 19.9362 166.438 19.5195C166.346 19.1029 166.32 18.6732 166.359 18.2305C166.398 17.7747 166.49 17.3385 166.633 16.9219C166.75 16.5964 166.88 16.2578 167.023 15.9062C167.18 15.5547 167.362 15.2292 167.57 14.9297C167.779 14.6302 168.026 14.3763 168.312 14.168C168.599 13.9466 168.938 13.8034 169.328 13.7383C169.732 13.6732 170.135 13.6536 170.539 13.6797C170.956 13.6927 171.366 13.7318 171.77 13.7969C171.952 13.8229 172.128 13.8685 172.297 13.9336C172.466 13.9857 172.635 14.0443 172.805 14.1094C172.818 13.9141 172.902 13.7513 173.059 13.6211C173.228 13.4909 173.404 13.4258 173.586 13.4258C173.807 13.4258 173.983 13.5039 174.113 13.6602C174.257 13.8034 174.341 13.9792 174.367 14.1875C174.432 14.7865 174.458 15.3854 174.445 15.9844C174.445 16.5833 174.426 17.1823 174.387 17.7812C174.361 18.3802 174.335 18.9792 174.309 19.5781C174.296 20.1771 174.302 20.776 174.328 21.375C174.341 21.6224 174.263 21.8112 174.094 21.9414C173.938 22.0586 173.762 22.1172 173.566 22.1172C173.371 22.1172 173.189 22.0586 173.02 21.9414C172.863 21.8112 172.779 21.6224 172.766 21.375C172.023 21.6875 171.236 21.8698 170.402 21.9219C169.569 21.9609 168.775 21.8112 168.02 21.4727ZM168.156 17.2344C168.078 17.4688 168.007 17.7357 167.941 18.0352C167.876 18.3346 167.857 18.6211 167.883 18.8945C167.909 19.168 167.993 19.4219 168.137 19.6562C168.28 19.8776 168.514 20.0339 168.84 20.125C169.504 20.3333 170.168 20.3919 170.832 20.3008C171.509 20.2096 172.141 19.9753 172.727 19.5977C172.779 18.9596 172.818 18.3411 172.844 17.7422C172.883 17.1432 172.896 16.5378 172.883 15.9258C172.661 15.7826 172.434 15.6589 172.199 15.5547C171.978 15.4375 171.73 15.3594 171.457 15.3203C171.184 15.2812 170.891 15.2552 170.578 15.2422C170.279 15.2161 169.986 15.2161 169.699 15.2422C169.673 15.2422 169.602 15.2617 169.484 15.3008C169.38 15.3268 169.322 15.3464 169.309 15.3594C169.178 15.4245 169.061 15.5286 168.957 15.6719C168.788 15.9062 168.638 16.1602 168.508 16.4336C168.378 16.694 168.26 16.9609 168.156 17.2344ZM176.457 20.125C176.457 19.5651 176.496 18.9987 176.574 18.4258C176.665 17.7357 176.757 17.0521 176.848 16.375C176.939 15.6849 176.978 14.9883 176.965 14.2852C176.965 14.0378 177.043 13.849 177.199 13.7188C177.355 13.5885 177.531 13.5234 177.727 13.5234C177.922 13.5234 178.104 13.5885 178.273 13.7188C178.443 13.849 178.527 14.0378 178.527 14.2852C179.035 14.2461 179.517 14.2266 179.973 14.2266C180.493 14.2396 180.936 14.3893 181.301 14.6758C181.665 14.9622 181.939 15.3464 182.121 15.8281C182.277 16.2708 182.368 16.7266 182.395 17.1953C182.421 17.6641 182.44 18.1328 182.453 18.6016C182.466 19.2656 182.486 19.9297 182.512 20.5938C182.538 21.2448 182.551 21.9023 182.551 22.5664C182.551 22.8268 182.466 23.0156 182.297 23.1328C182.141 23.263 181.965 23.3281 181.77 23.3281C181.587 23.3281 181.411 23.263 181.242 23.1328C181.086 23.0156 181.008 22.8268 181.008 22.5664C181.008 21.9414 180.995 21.3294 180.969 20.7305C180.956 20.1315 180.936 19.5195 180.91 18.8945C180.884 18.556 180.871 18.2109 180.871 17.8594C180.884 17.4948 180.858 17.1628 180.793 16.8633C180.754 16.681 180.715 16.5247 180.676 16.3945C180.637 16.2513 180.565 16.1146 180.461 15.9844C180.435 15.9323 180.376 15.8867 180.285 15.8477C180.207 15.8086 180.135 15.7891 180.07 15.7891C179.875 15.7891 179.693 15.8021 179.523 15.8281C179.354 15.8542 179.178 15.8932 178.996 15.9453C178.918 15.9714 178.84 15.9974 178.762 16.0234C178.684 16.0495 178.612 16.082 178.547 16.1211C178.417 16.5898 178.319 17.0391 178.254 17.4688C178.202 17.8854 178.15 18.3086 178.098 18.7383C178.059 19.0508 178.033 19.3698 178.02 19.6953C178.02 20.0078 178.007 20.3203 177.98 20.6328C177.967 20.9453 177.928 21.2578 177.863 21.5703C177.811 21.8828 177.714 22.1823 177.57 22.4688C177.453 22.6901 177.297 22.8138 177.102 22.8398C176.906 22.8789 176.724 22.8464 176.555 22.7422C176.398 22.651 176.275 22.5078 176.184 22.3125C176.105 22.1172 176.118 21.9089 176.223 21.6875C176.34 21.4531 176.405 21.1992 176.418 20.9258C176.431 20.6523 176.444 20.3854 176.457 20.125ZM184.738 21.6094C184.556 21.5443 184.4 21.4206 184.27 21.2383C184.152 21.043 184.133 20.8477 184.211 20.6523C184.432 20.0404 184.582 19.4219 184.66 18.7969C184.738 18.1719 184.79 17.5339 184.816 16.8828C184.829 16.6875 184.836 16.4987 184.836 16.3164C184.836 16.1211 184.842 15.9258 184.855 15.7305C184.816 15.5742 184.829 15.4245 184.895 15.2812C184.921 14.9036 184.947 14.526 184.973 14.1484C184.999 13.7578 185.038 13.3737 185.09 12.9961C185.155 12.4232 185.22 11.8568 185.285 11.2969C185.363 10.724 185.415 10.1445 185.441 9.55859C185.467 9.02474 185.493 8.4974 185.52 7.97656C185.559 7.44271 185.695 6.9349 185.93 6.45312C186.047 6.23177 186.203 6.10807 186.398 6.08203C186.594 6.04297 186.776 6.07552 186.945 6.17969C187.115 6.27083 187.238 6.41406 187.316 6.60938C187.408 6.80469 187.395 7.01302 187.277 7.23438C187.173 7.45573 187.102 7.68359 187.062 7.91797C187.023 8.15234 186.997 8.39323 186.984 8.64062C186.984 8.88802 186.984 9.13542 186.984 9.38281C186.984 9.63021 186.978 9.87109 186.965 10.1055C186.9 10.6914 186.835 11.2773 186.77 11.8633C186.704 12.4362 186.639 13.0156 186.574 13.6016C187.121 13.3281 187.727 13.1784 188.391 13.1523C188.911 13.1393 189.439 13.2305 189.973 13.4258C190.52 13.6081 190.962 13.9076 191.301 14.3242C191.496 14.5716 191.652 14.8451 191.77 15.1445C191.887 15.431 191.978 15.737 192.043 16.0625C192.121 16.375 192.173 16.694 192.199 17.0195C192.225 17.332 192.251 17.638 192.277 17.9375C192.316 18.5495 192.329 19.1615 192.316 19.7734C192.316 20.3724 192.303 20.9844 192.277 21.6094C192.277 21.8568 192.193 22.0391 192.023 22.1562C191.854 22.2865 191.672 22.3516 191.477 22.3516C191.281 22.3516 191.105 22.2865 190.949 22.1562C190.793 22.0391 190.721 21.8568 190.734 21.6094C190.747 21.0885 190.76 20.5677 190.773 20.0469C190.786 19.526 190.78 19.0052 190.754 18.4844C190.728 18.224 190.708 17.957 190.695 17.6836C190.682 17.4102 190.65 17.1367 190.598 16.8633C190.572 16.7331 190.546 16.6094 190.52 16.4922C190.507 16.362 190.48 16.2318 190.441 16.1016C190.428 15.9974 190.396 15.8867 190.344 15.7695C190.305 15.6523 190.279 15.5872 190.266 15.5742C190.24 15.5352 190.22 15.5026 190.207 15.4766C190.194 15.4375 190.174 15.3984 190.148 15.3594C190.031 15.2292 189.96 15.1576 189.934 15.1445C189.882 15.1055 189.836 15.0794 189.797 15.0664C189.758 15.0404 189.719 15.0143 189.68 14.9883C189.536 14.9102 189.374 14.8451 189.191 14.793C189.009 14.7409 188.833 14.7148 188.664 14.7148C188.221 14.6888 187.805 14.7669 187.414 14.9492C187.036 15.1315 186.698 15.4115 186.398 15.7891C186.372 16.6875 186.327 17.5794 186.262 18.4648C186.197 19.3372 186.008 20.2031 185.695 21.0625C185.63 21.2578 185.507 21.4141 185.324 21.5312C185.155 21.6484 184.96 21.6745 184.738 21.6094ZM195.5 21.4727C195.057 21.2773 194.706 21.0104 194.445 20.6719C194.198 20.3203 194.022 19.9362 193.918 19.5195C193.827 19.1029 193.801 18.6732 193.84 18.2305C193.879 17.7747 193.97 17.3385 194.113 16.9219C194.23 16.5964 194.361 16.2578 194.504 15.9062C194.66 15.5547 194.842 15.2292 195.051 14.9297C195.259 14.6302 195.507 14.3763 195.793 14.168C196.079 13.9466 196.418 13.8034 196.809 13.7383C197.212 13.6732 197.616 13.6536 198.02 13.6797C198.436 13.6927 198.846 13.7318 199.25 13.7969C199.432 13.8229 199.608 13.8685 199.777 13.9336C199.947 13.9857 200.116 14.0443 200.285 14.1094C200.298 13.9141 200.383 13.7513 200.539 13.6211C200.708 13.4909 200.884 13.4258 201.066 13.4258C201.288 13.4258 201.464 13.5039 201.594 13.6602C201.737 13.8034 201.822 13.9792 201.848 14.1875C201.913 14.7865 201.939 15.3854 201.926 15.9844C201.926 16.5833 201.906 17.1823 201.867 17.7812C201.841 18.3802 201.815 18.9792 201.789 19.5781C201.776 20.1771 201.783 20.776 201.809 21.375C201.822 21.6224 201.743 21.8112 201.574 21.9414C201.418 22.0586 201.242 22.1172 201.047 22.1172C200.852 22.1172 200.669 22.0586 200.5 21.9414C200.344 21.8112 200.259 21.6224 200.246 21.375C199.504 21.6875 198.716 21.8698 197.883 21.9219C197.049 21.9609 196.255 21.8112 195.5 21.4727ZM195.637 17.2344C195.559 17.4688 195.487 17.7357 195.422 18.0352C195.357 18.3346 195.337 18.6211 195.363 18.8945C195.389 19.168 195.474 19.4219 195.617 19.6562C195.76 19.8776 195.995 20.0339 196.32 20.125C196.984 20.3333 197.648 20.3919 198.312 20.3008C198.99 20.2096 199.621 19.9753 200.207 19.5977C200.259 18.9596 200.298 18.3411 200.324 17.7422C200.363 17.1432 200.376 16.5378 200.363 15.9258C200.142 15.7826 199.914 15.6589 199.68 15.5547C199.458 15.4375 199.211 15.3594 198.938 15.3203C198.664 15.2812 198.371 15.2552 198.059 15.2422C197.759 15.2161 197.466 15.2161 197.18 15.2422C197.154 15.2422 197.082 15.2617 196.965 15.3008C196.861 15.3268 196.802 15.3464 196.789 15.3594C196.659 15.4245 196.542 15.5286 196.438 15.6719C196.268 15.9062 196.118 16.1602 195.988 16.4336C195.858 16.694 195.741 16.9609 195.637 17.2344ZM199.992 12C199.719 12.1042 199.432 12.1367 199.133 12.0977C198.846 12.0456 198.586 11.9284 198.352 11.7461C198.169 11.6029 197.993 11.4466 197.824 11.2773C197.655 11.0951 197.453 10.9844 197.219 10.9453C196.997 10.9062 196.783 10.9453 196.574 11.0625C196.379 11.1797 196.21 11.3099 196.066 11.4531C195.884 11.6354 195.689 11.7135 195.48 11.6875C195.285 11.6615 195.116 11.5833 194.973 11.4531C194.842 11.3099 194.758 11.1406 194.719 10.9453C194.693 10.737 194.771 10.5417 194.953 10.3594C195.174 10.138 195.422 9.94922 195.695 9.79297C195.969 9.63672 196.255 9.52604 196.555 9.46094C196.867 9.38281 197.173 9.36979 197.473 9.42188C197.785 9.46094 198.085 9.5651 198.371 9.73438C198.618 9.90365 198.833 10.0859 199.016 10.2812C199.081 10.3464 199.139 10.4049 199.191 10.457C199.243 10.4961 199.302 10.5286 199.367 10.5547C199.445 10.5677 199.523 10.5482 199.602 10.4961C199.68 10.431 199.758 10.3594 199.836 10.2812C199.914 10.1901 199.986 10.099 200.051 10.0078C200.116 9.90365 200.168 9.82552 200.207 9.77344C200.35 9.60417 200.533 9.52604 200.754 9.53906C200.975 9.55208 201.158 9.63021 201.301 9.77344C201.47 9.92969 201.548 10.112 201.535 10.3203C201.522 10.5156 201.444 10.6979 201.301 10.8672C201.118 11.0885 200.93 11.3099 200.734 11.5312C200.539 11.7396 200.292 11.8958 199.992 12Z" fill="#292524"/>
</svg>
